<svg width="32" height="60" viewBox="0 0 32 60" fill="none" xmlns="http://www.w3.org/2000/svg">
<path fill-rule="evenodd" clip-rule="evenodd" d="M23.3958 29.6529C23.3524 29.9311 23.2466 30.1959 23.0863 30.4275C22.926 30.659 22.7154 30.8512 22.4703 30.9898C21.9766 31.3086 21.5447 31.468 21.1077 31.6274C20.177 31.9488 19.1974 32.2702 18.1613 32.643C17.0687 33.0157 16.0891 33.3885 15.215 33.6585C14.1249 34.0313 13.0888 34.3526 12.1041 34.7254C11.3633 35.0425 10.6674 35.4556 10.0345 35.9544C9.44584 36.4877 8.93212 37.0983 8.50734 37.7695C8.07027 38.515 7.79518 39.4766 7.79518 40.5975C7.79518 42.842 8.34022 44.5491 9.43289 45.6161C10.523 46.7396 12.5438 47.2718 15.5389 47.2718C18.5933 47.2718 20.6655 46.6856 21.7607 45.5107C22.8482 44.3357 23.3932 42.6826 23.3932 40.5487V29.6529H23.3958ZM15.5415 6C20.8891 6 24.815 7.01553 27.3217 9.09802C29.831 11.1291 31.0856 13.7412 31.0856 16.8366V43.2148C31.0856 44.2817 30.8696 45.4567 30.4891 46.737C30.1035 48.0225 29.3425 49.1949 28.1418 50.2592C26.9977 51.3313 25.4166 52.2389 23.3984 52.933C21.3802 53.6272 18.7629 54 15.5441 54C12.3304 54 9.70798 53.6272 7.69234 52.933C5.6767 52.2389 4.09298 51.3313 2.9489 50.2592C1.8846 49.3001 1.07834 48.089 0.604178 46.737C0.218532 45.4592 0 44.2843 0 43.2174V39.001C0 36.7565 0.599036 34.674 1.79968 32.8563C3.00032 30.9898 4.68945 29.7095 6.8722 28.9073C7.96229 28.5345 9.21693 28.1618 10.6335 27.681C12.0527 27.1976 13.3588 26.7169 14.6699 26.2927C15.9811 25.8633 17.1252 25.434 18.1048 25.0586C18.6959 24.8221 19.2963 24.6094 19.9044 24.421L20.8866 23.9402C21.2722 23.7268 21.6501 23.4055 22.0332 22.9787C22.4137 22.5545 22.7402 22.0737 23.0153 21.5389C23.306 20.9599 23.4557 20.3203 23.4524 19.6724V17.9627C23.4564 17.3361 23.3249 16.716 23.0667 16.145C22.8508 15.5023 22.4137 14.9161 21.8147 14.3839C21.2156 13.8492 20.3955 13.4224 19.416 13.0984C18.4338 12.7822 17.1278 12.6202 15.6521 12.6202C12.5977 12.6202 10.5795 13.2116 9.48945 14.4354C8.5639 15.5049 8.01885 16.8392 7.91087 18.3329C7.91087 18.6543 7.63835 18.8677 7.30927 18.8677L0.658168 18.9757C0.500177 18.9764 0.348309 18.9146 0.235632 18.8039C0.122956 18.6931 0.0585941 18.5423 0.0565613 18.3844V16.8418C0.0565613 15.3429 0.331655 13.9546 0.930691 12.6202C1.5323 11.2833 2.46042 10.165 3.71248 9.20086C4.96711 8.24189 6.60482 7.44231 8.56647 6.90755C10.4767 6.26481 12.8214 6 15.5466 6H15.5415Z" fill="#052051"/>
</svg>
