<svg width="27" height="26" viewBox="0 0 27 26" fill="none" xmlns="http://www.w3.org/2000/svg">
<mask id="path-1-inside-1_126107_1565" fill="white">
<path fill-rule="evenodd" clip-rule="evenodd" d="M17.6716 8.45283L13.5 0L9.32825 8.45283L0 9.8083L6.74998 16.3879L5.15653 25.6785L13.5 21.2921L21.8434 25.6785L20.2499 16.3879L27 9.8083L17.6716 8.45283ZM22.6422 11.2242L16.325 10.3063L13.5 4.58196L10.6749 10.3063L4.3577 11.2242L8.92884 15.68L7.84973 21.9717L13.5 19.001L19.1502 21.9717L18.0711 15.68L22.6422 11.2242Z"/>
</mask>
<path fill-rule="evenodd" clip-rule="evenodd" d="M17.6716 8.45283L13.5 0L9.32825 8.45283L0 9.8083L6.74998 16.3879L5.15653 25.6785L13.5 21.2921L21.8434 25.6785L20.2499 16.3879L27 9.8083L17.6716 8.45283ZM22.6422 11.2242L16.325 10.3063L13.5 4.58196L10.6749 10.3063L4.3577 11.2242L8.92884 15.68L7.84973 21.9717L13.5 19.001L19.1502 21.9717L18.0711 15.68L22.6422 11.2242Z" fill="#052051"/>
<path d="M17.6716 8.45283L15.4298 9.55922L16.0115 10.7379L17.3121 10.9268L17.6716 8.45283ZM13.5 0L15.7419 -1.10639L13.5 -5.64891L11.2582 -1.10642L13.5 0ZM9.32825 8.45283L9.68775 10.9268L10.9884 10.7379L11.5701 9.55925L9.32825 8.45283ZM0 9.8083L-0.359495 7.33429L-5.37242 8.06271L-1.74502 11.5985L0 9.8083ZM6.74998 16.3879L9.214 16.8105L9.43618 15.5151L8.495 14.5976L6.74998 16.3879ZM5.15653 25.6785L2.69251 25.2559L1.83622 30.2485L6.31989 27.8913L5.15653 25.6785ZM13.5 21.2921L14.6634 19.0792L13.5 18.4676L12.3367 19.0792L13.5 21.2921ZM21.8434 25.6785L20.68 27.8913L25.1637 30.2486L24.3074 25.2559L21.8434 25.6785ZM20.2499 16.3879L18.5049 14.5976L17.5637 15.5151L17.7859 16.8105L20.2499 16.3879ZM27 9.8083L28.745 11.5985L32.3725 8.0627L27.3595 7.33429L27 9.8083ZM22.6422 11.2242L24.3873 13.0144L28.0146 9.47865L23.0017 8.75022L22.6422 11.2242ZM16.325 10.3063L14.0832 11.4127L14.6648 12.5913L15.9655 12.7803L16.325 10.3063ZM13.5 4.58196L15.7419 3.47558L13.5001 -1.06697L11.2582 3.47553L13.5 4.58196ZM10.6749 10.3063L11.0344 12.7803L12.335 12.5913L12.9167 11.4127L10.6749 10.3063ZM4.3577 11.2242L3.99819 8.75022L-1.01467 9.47865L2.61266 13.0144L4.3577 11.2242ZM8.92884 15.68L11.3929 16.1026L11.615 14.8072L10.6739 13.8898L8.92884 15.68ZM7.84973 21.9717L5.38571 21.549L4.52938 26.5418L9.01311 24.1845L7.84973 21.9717ZM13.5 19.001L14.6634 16.7882L13.5 16.1766L12.3366 16.7882L13.5 19.001ZM19.1502 21.9717L17.9868 24.1845L22.4705 26.5418L21.6142 21.5491L19.1502 21.9717ZM18.0711 15.68L16.3261 13.8898L15.3849 14.8072L15.6071 16.1026L18.0711 15.68ZM19.9135 7.34644L15.7419 -1.10639L11.2582 1.10639L15.4298 9.55922L19.9135 7.34644ZM11.2582 -1.10642L7.08642 7.34641L11.5701 9.55925L15.7418 1.10642L11.2582 -1.10642ZM8.96876 5.97881L-0.359495 7.33429L0.359495 12.2823L9.68775 10.9268L8.96876 5.97881ZM-1.74502 11.5985L5.00496 18.1781L8.495 14.5976L1.74502 8.01808L-1.74502 11.5985ZM4.28596 15.9653L2.69251 25.2559L7.62056 26.1011L9.214 16.8105L4.28596 15.9653ZM6.31989 27.8913L14.6634 23.5049L12.3367 19.0792L3.99318 23.4657L6.31989 27.8913ZM12.3366 23.5049L20.68 27.8913L23.0068 23.4657L14.6634 19.0792L12.3366 23.5049ZM24.3074 25.2559L22.714 15.9653L17.7859 16.8105L19.3794 26.1011L24.3074 25.2559ZM21.9949 18.1781L28.745 11.5985L25.255 8.01807L18.5049 14.5976L21.9949 18.1781ZM27.3595 7.33429L18.0311 5.97881L17.3121 10.9268L26.6405 12.2823L27.3595 7.33429ZM23.0017 8.75022L16.6845 7.83225L15.9655 12.7803L22.2827 13.6983L23.0017 8.75022ZM18.5669 9.19988L15.7419 3.47558L11.2582 5.68834L14.0832 11.4127L18.5669 9.19988ZM11.2582 3.47553L8.43303 9.19984L12.9167 11.4127L15.7418 5.68839L11.2582 3.47553ZM10.3154 7.83225L3.99819 8.75022L4.7172 13.6982L11.0344 12.7803L10.3154 7.83225ZM2.61266 13.0144L7.18381 17.4702L10.6739 13.8898L6.10273 9.43402L2.61266 13.0144ZM6.46482 15.2574L5.38571 21.549L10.3138 22.3943L11.3929 16.1026L6.46482 15.2574ZM9.01311 24.1845L14.6634 21.2139L12.3366 16.7882L6.68635 19.7588L9.01311 24.1845ZM12.3366 21.2138L17.9868 24.1845L20.3136 19.7589L14.6634 16.7882L12.3366 21.2138ZM21.6142 21.5491L20.5351 15.2574L15.6071 16.1026L16.6862 22.3943L21.6142 21.5491ZM19.8162 17.4702L24.3873 13.0144L20.8972 9.43403L16.3261 13.8898L19.8162 17.4702Z" fill="#052051" mask="url(#path-1-inside-1_126107_1565)"/>
</svg>
